<?xml version="1.0" encoding="utf-8"?>
<?xml-stylesheet type="text/xsl" href="rss1.xsl"?>
<rss version="2.0" xmlns:atom="http://www.w3.org/2005/Atom" xmlns:content="http://purl.org/rss/1.0/modules/content/" xmlns:dc="http://purl.org/dc/elements/1.1/" xmlns:media="http://search.yahoo.com/mrss/">
<channel>
 <title>Getty</title>
 <link>http://www.gettyimg.com/</link>
 <atom:link href="http://www.gettyimg.com/" rel="self" type="application/rss+xml" />

 
                <item>
                <title><![CDATA[【Apple Music】WEB-RiP - Imagine Dragons - Nice To Meet You 'Apple.Music.Web.4K-fstambuk']]></title>
                <link><![CDATA[https://sharemania.us/threads/imagine-dragons-nice-to-meet-you-apple-music-web-4k-fstambuk.245419/]]></link>
                <description><![CDATA[<article>
<blockquote class="messageText SelectQuoteContainer ugc baseHtml">
<div style="text-align: center"><img src="https://i.ibb.co/0hT9TWs/Imagine-Dragons-Nice-To-Meet-You-Apple-Music-Web-4-K-fstambuk-VTM.gif" class="bbCodeImage LbImage" alt="[​IMG]" data-url="https://i.ibb.co/0hT9TWs/Imagine-Dragons-Nice-To-Meet-You-Apple-Music-Web-4-K-fstambuk-VTM.gif" style=""><br>
​</div>
<div class="ToggleTriggerAnchor bbCodeSpoilerContainer">
<button type="button" class="button bbCodeSpoilerButton ToggleTrigger Tooltip JsOnly" data-target="> .SpoilerTarget"><span>Spoiler: <span class="SpoilerTitle">Apple Music</span></span></button>
<div class="SpoilerTarget bbCodeSpoilerText">
<div class="bbCodeBlock bbCodeCode">
<div class="type">Code:</div>
<pre>General
Complete name                            : Imagine Dragons - Nice To Meet You 'Apple.Music.Web.4K-fstambuk'.m4v
Format                                   : MPEG-4
Format profile                           : Base Media
Codec ID                                 : isom (isom/iso2/mp41)
File size                                : 540 MiB
Duration                                 : 3 min 33 s
Overall bit rate mode                    : Variable
Overall bit rate                         : 21.2 Mb/s
Frame rate                               : 23.976 FPS
Movie name                               : Nice to Meet You
Performer                                : Imagine Dragons
Genre                                    : Alternative
ContentType                              : Music Video
Recorded date                            : 2024-05-24 07:00:00 UTC
Copyright                                : ℗ 2024 KIDinaKORNER/Interscope Records
Cover                                    : Yes
Rating                                   : None
GenreID                                  : 1620
AlbumTitleID                             : 358714030
AppleStoreCatalogID                      : 1747841124

Video
ID                                       : 1
Format                                   : HEVC
Format/Info                              : High Efficiency Video Coding
Format profile                           : Main 10@L5@High
Codec ID                                 : hvc1
Codec ID/Info                            : High Efficiency Video Coding
Duration                                 : 3 min 33 s
Bit rate                                 : 20.9 Mb/s
Width                                    : 3 840 pixels
Height                                   : 1 728 pixels
Display aspect ratio                     : 2.222
Frame rate mode                          : Constant
Frame rate                               : 23.976 (24000/1001) FPS
Color space                              : YUV
Chroma subsampling                       : 4:2:0
Bit depth                                : 10 bits
Scan type                                : Progressive
Bits/(Pixel*Frame)                       : 0.131
Stream size                              : 533 MiB (99%)
Title                                    : Core Media Video
Language                                 : English
Color range                              : Limited
Color primaries                          : BT.709
Transfer characteristics                 : BT.709
Matrix coefficients                      : BT.709
Codec configuration box                  : hvcC

Audio
ID                                       : 2
Format                                   : AAC LC
Format/Info                              : Advanced Audio Codec Low Complexity
Codec ID                                 : 2 / 40 / mp4a-40-2
Duration                                 : 3 min 33 s
Bit rate mode                            : Constant
Bit rate                                 : 257 kb/s
Channel(s)                               : 2 channels
Channel layout                           : L R
Sampling rate                            : 48.0 kHz
Frame rate                               : 46.875 FPS (1024 SPF)
Compression mode                         : Lossy
Stream size                              : 6.55 MiB (1%)
Title                                    : Core Media Audio
Default                                  : Yes
Alternate group                          : 1

Text
ID                                       : 3
Format                                   : Timed Text
Muxing mode                              : sbtl
Codec ID                                 : tx3g
Duration                                 : 3 min 33 s
Bit rate mode                            : Variable
Bit rate                                 : 140 b/s
Frame rate                               : 0.413 FPS
Stream size                              : 3.63 KiB (0%)
Title                                    : Core Media Closed Caption
Language                                 : English
Default                                  : Yes
Forced                                   : No
Alternate group                          : 3
Count of events                          : 83

</pre>
</div><div style="text-align: center">​</div></div>
</div><div style="text-align: center"><br>
<div class="bbCodeBlock bbCodeVfcHH HiddenContent">
<div class="attribution type">Hidden Content:</div>
<blockquote>You must reply before you can see the hidden data contained here.</blockquote>
</div></div>
<div class="messageTextEndMarker">&nbsp;</div>
</blockquote>
</article>]]></description>
                <author><![CDATA[fstambuk]]></author>
                </item>

                
                <item>
                <title><![CDATA[【Cinema Center】MOVIE - The First Omen (2024) 1080p WEB-DL DDP5.1 Atmos H.264 - FLUX]]></title>
                <link><![CDATA[https://sharemania.us/threads/the-first-omen-2024-1080p-web-dl-ddp5-1-atmos-h-264-flux.245418/]]></link>
                <description><![CDATA[<article>
<blockquote class="messageText SelectQuoteContainer ugc baseHtml">
<div style="text-align: center"><img src="https://m.media-amazon.com/images/M/MV5BMzI2YmYwZWYtNzgzNi00ODU2LWE1NWMtZmY4NTJjYzIyNTIxXkEyXkFqcGdeQXVyMTM1NjM2ODg1._V1_FMjpg_UX1056_.jpg" class="bbCodeImage LbImage" alt="[​IMG]" data-url="https://m.media-amazon.com/images/M/MV5BMzI2YmYwZWYtNzgzNi00ODU2LWE1NWMtZmY4NTJjYzIyNTIxXkEyXkFqcGdeQXVyMTM1NjM2ODg1._V1_FMjpg_UX1056_.jpg" style=""> <br>
<br>
A young American woman is sent to Rome to begin a life of service to the church, but encounters a darkness that causes her to question her faith and uncovers a terrifying conspiracy that hopes to bring about the birth of evil incarnate.<br>
<br>
Download:<br>
<br>
<div class="bbCodeBlock bbCodeVfcHH HiddenContent">
<div class="attribution type">Hidden Content:</div>
<blockquote>You must either reply or click 'Like' to see the hidden information contained here.</blockquote>
</div><span style="text-decoration: underline"><b>Original Motion Picture Soundtrack:<br>
<br>
<img src="https://picimg.net/c41696a19a5e925f28a0b8b63e546922.jpg" class="bbCodeImage LbImage" alt="[​IMG]" data-url="https://picimg.net/c41696a19a5e925f28a0b8b63e546922.jpg" style=""> <br>
</b></span><br>
Download:<br>
<br>
<div class="bbCodeBlock bbCodeVfcHH HiddenContent">
<div class="attribution type">Hidden Content:</div>
<blockquote>You must either reply or click 'Like' to see the hidden information contained here.</blockquote>
</div></div>
<div class="messageTextEndMarker">&nbsp;</div>
</blockquote>
</article>]]></description>
                <author><![CDATA[sunnyillion]]></author>
                </item>

                
                <item>
                <title><![CDATA[【Albums (lossless)】FLAC - New Found Glory - From The Screen To Your Stereo [Qobuz CD 16bit/44.1kHz]]]></title>
                <link><![CDATA[https://sharemania.us/threads/new-found-glory-from-the-screen-to-your-stereo-qobuz-cd-16bit-44-1khz.245417/]]></link>
                <description><![CDATA[<article>
<blockquote class="messageText SelectQuoteContainer ugc baseHtml">
Thanks.
<div class="messageTextEndMarker">&nbsp;</div>
</blockquote>
</article>]]></description>
                <author><![CDATA[olobersykes99]]></author>
                </item>

                </channel></rss>